<svg data-logo="logo" xmlns="http://www.w3.org/2000/svg" viewBox="0 0 264.3199996948242 42.1435546875">
        <g style="opacity: 1;" id="logogram" transform="translate(0, 1.07177734375)
    rotate(0 65 20)"><path d="M65.1428 40C76.1885 40 85.1426 31.0456 85.1426 19.9999C85.1426 8.9543 76.1885 0 65.1428 0C54.0971 0 45.1427 8.9543 45.1427 19.9999C45.1427 31.0456 54.0971 40 65.1428 40Z" fill="#FFFFFF"></path><path d="M109.852 40C120.897 40 129.852 31.0456 129.852 19.9999C129.852 8.9543 120.897 0 109.852 0C98.8061 0 89.8517 8.9543 89.8517 19.9999C89.8517 31.0456 98.8061 40 109.852 40Z" fill="#FFFFFF"></path><path d="M40.4335 0H0.452637V39.9808H40.4335V0Z" fill="#FFFFFF"></path></g>
        <g style="opacity: 1;" id="logotype" transform="translate(136, 0.5)"><path fill="#ffffff" d="M19.06 34L8.31 34L8.31 8.54L18.41 8.54Q21.21 8.54 23.08 9.38Q24.95 10.23 25.88 11.70Q26.82 13.17 26.82 15.08L26.82 15.08Q26.82 16.59 26.22 17.70Q25.62 18.82 24.59 19.53Q23.55 20.24 22.24 20.55L22.24 20.55L22.24 20.81Q23.67 20.86 24.94 21.62Q26.22 22.38 27.01 23.74Q27.81 25.10 27.81 26.99L27.81 26.99Q27.81 28.99 26.82 30.58Q25.82 32.17 23.88 33.09Q21.94 34 19.06 34L19.06 34ZM13.52 22.81L13.52 29.71L18.03 29.71Q20.32 29.71 21.38 28.82Q22.44 27.93 22.44 26.50L22.44 26.50Q22.44 25.40 21.92 24.57Q21.40 23.75 20.44 23.28Q19.48 22.81 18.17 22.81L18.17 22.81L13.52 22.81ZM13.52 12.79L13.52 19.23L17.64 19.23Q18.75 19.23 19.64 18.83Q20.53 18.43 21.03 17.69Q21.53 16.94 21.53 15.92L21.53 15.92Q21.53 14.53 20.55 13.66Q19.57 12.79 17.74 12.79L17.74 12.79L13.52 12.79ZM34.20 34L29.07 34L29.07 14.89L34.03 14.89L34.03 18.23L34.23 18.23Q34.76 16.45 36.00 15.54Q37.24 14.64 38.84 14.64L38.84 14.64Q39.24 14.64 39.69 14.68Q40.14 14.72 40.50 14.81L40.50 14.81L40.50 19.39Q40.16 19.27 39.51 19.20Q38.86 19.13 38.28 19.13L38.28 19.13Q37.12 19.13 36.18 19.64Q35.24 20.14 34.72 21.04Q34.20 21.93 34.20 23.13L34.20 23.13L34.20 34ZM46.38 34.38L46.38 34.38Q44.57 34.38 43.12 33.74Q41.68 33.09 40.85 31.82Q40.02 30.55 40.02 28.65L40.02 28.65Q40.02 27.06 40.61 25.98Q41.20 24.91 42.22 24.26Q43.23 23.61 44.52 23.27Q45.82 22.93 47.23 22.79L47.23 22.79Q48.89 22.62 49.91 22.47Q50.93 22.33 51.40 22.01Q51.87 21.70 51.87 21.08L51.87 21.08L51.87 20.99Q51.87 20.17 51.52 19.61Q51.18 19.05 50.51 18.75Q49.85 18.45 48.87 18.45L48.87 18.45Q47.88 18.45 47.15 18.75Q46.41 19.05 45.95 19.54Q45.49 20.04 45.27 20.65L45.27 20.65L40.57 19.87Q41.06 18.21 42.21 17.05Q43.35 15.88 45.05 15.27Q46.76 14.65 48.87 14.65L48.87 14.65Q50.43 14.65 51.88 15.02Q53.33 15.39 54.49 16.16Q55.64 16.93 56.32 18.16Q56.99 19.39 56.99 21.13L56.99 21.13L56.99 34L52.14 34L52.14 31.35L51.97 31.35Q51.51 32.24 50.74 32.91Q49.97 33.59 48.88 33.98Q47.80 34.38 46.38 34.38ZM47.83 30.77L47.83 30.77Q49.05 30.77 49.96 30.29Q50.87 29.81 51.39 28.99Q51.90 28.17 51.90 27.16L51.90 27.16L51.90 25.10Q51.68 25.27 51.22 25.40Q50.75 25.54 50.19 25.64Q49.63 25.75 49.08 25.83Q48.53 25.92 48.11 25.97L48.11 25.97Q47.17 26.10 46.45 26.41Q45.73 26.72 45.34 27.22Q44.94 27.73 44.94 28.51L44.94 28.51Q44.94 29.25 45.32 29.75Q45.70 30.26 46.34 30.51Q46.98 30.77 47.83 30.77ZM64.22 34L59.09 34L59.09 14.89L64.22 14.89L64.22 34ZM61.66 12.40L61.66 12.40Q60.49 12.40 59.67 11.63Q58.85 10.86 58.85 9.77L58.85 9.77Q58.85 8.67 59.67 7.90Q60.49 7.13 61.66 7.13L61.66 7.13Q62.82 7.13 63.65 7.90Q64.48 8.66 64.48 9.77L64.48 9.77Q64.48 10.86 63.65 11.63Q62.82 12.40 61.66 12.40ZM71.43 22.94L71.43 22.94L71.43 34L66.30 34L66.30 14.89L71.14 14.89L71.22 19.66L70.92 19.66Q71.67 17.27 73.20 15.96Q74.73 14.65 77.15 14.65L77.15 14.65Q79.14 14.65 80.61 15.52Q82.08 16.38 82.90 18.00Q83.72 19.61 83.72 21.85L83.72 21.85L83.72 34L78.59 34L78.59 22.74Q78.59 20.96 77.68 19.95Q76.76 18.94 75.14 18.94L75.14 18.94Q74.06 18.94 73.21 19.41Q72.37 19.88 71.90 20.77Q71.43 21.66 71.43 22.94ZM96.45 34.36L96.45 34.36Q93.28 34.36 90.92 33.19Q88.55 32.02 87.24 29.93Q85.94 27.85 85.94 25.06L85.94 25.06L85.94 8.54L91.15 8.54L91.15 24.63Q91.15 26.12 91.81 27.28Q92.46 28.43 93.65 29.09Q94.84 29.74 96.45 29.74L96.45 29.74Q98.04 29.74 99.22 29.09Q100.41 28.43 101.07 27.28Q101.73 26.12 101.73 24.63L101.73 24.63L101.73 8.54L106.96 8.54L106.96 25.06Q106.96 27.85 105.64 29.93Q104.32 32.02 101.96 33.19Q99.59 34.36 96.45 34.36ZM114.29 41.14L109.16 41.14L109.16 14.89L114.20 14.89L114.20 18.11L114.44 18.11Q114.80 17.35 115.46 16.55Q116.11 15.75 117.19 15.20Q118.27 14.65 119.89 14.65L119.89 14.65Q122.01 14.65 123.77 15.75Q125.53 16.84 126.58 19.03Q127.63 21.22 127.63 24.48L127.63 24.48Q127.63 27.66 126.61 29.86Q125.58 32.05 123.82 33.19Q122.06 34.32 119.86 34.32L119.86 34.32Q118.30 34.32 117.23 33.79Q116.15 33.27 115.47 32.49Q114.80 31.71 114.44 30.94L114.44 30.94L114.29 30.94L114.29 41.14ZM118.29 30.21L118.29 30.21Q119.62 30.21 120.53 29.47Q121.45 28.74 121.92 27.44Q122.39 26.14 122.39 24.46L122.39 24.46Q122.39 22.79 121.92 21.51Q121.45 20.23 120.54 19.49Q119.64 18.76 118.29 18.76L118.29 18.76Q116.97 18.76 116.05 19.47Q115.12 20.17 114.64 21.45Q114.17 22.72 114.17 24.46L114.17 24.46Q114.17 26.19 114.65 27.48Q115.14 28.77 116.06 29.49Q116.99 30.21 118.29 30.21Z"></path></g>
        
      </svg>